<?xml version="1.0" encoding="UTF-8" standalone="no"?>
<!-- Created with Inkscape (http://www.inkscape.org/) -->

<svg xmlns="http://www.w3.org/2000/svg" xmlns:xlink="http://www.w3.org/1999/xlink" version="1.1" x="0px" y="0px" width="191px" height="15px" viewBox="0 0 191 15.2" style="overflow: visible; width: 423px; height: 33px; display: block; transform: scale(1, 1); transition-property: none;" xml:space="preserve" aria-hidden="true">
  <style type="text/css">
	.st0-ide7f16f1ee{fill:#A13382;}
  .st0-ide7f16f1e1{fill:#FFFFFF;}
</style>
  <defs>
    <linearGradient class="cerosgradient" data-cerosgradient="true" id="CerosGradient_ide7f16f1ee" gradientUnits="userSpaceOnUse" x1="50%" y1="100%" x2="50%" y2="0%">
      <stop offset="0%" stop-color="#FFFFFF" style="transition-property: none;"></stop>
      <stop offset="100%" stop-color="#FFFFFF" style="transition-property: none;"></stop>
    </linearGradient>
    <linearGradient></linearGradient>
  </defs>
  <polygon class="st0-ide7f16f1e1" points="1.5,0.3 3.2,0.3 2.3,9 11.5,0.3 13.7,0.3 6.8,6.7 12.4,14.9 10.3,14.9 5.5,7.8 2.1,11 1.6,14.9 0,14.9 " style="transition-property: none;"></polygon>
  <g class="st0-ide7f16f1e1">
    <path d="M26.6,7.6L26.6,7.6c0.4-3.4-1.8-6.1-5.1-6.1s-6,2.7-6.3,6l0,0c-0.3,3.3,1.8,6,5.1,6C23.6,13.6,26.2,10.9,26.6,7.6    M13.4,7.6L13.4,7.6C13.8,3.5,17.2,0,21.7,0s7,3.5,6.6,7.5l0,0c-0.4,4-3.8,7.5-8.2,7.5S13,11.6,13.4,7.6" style="transition-property: none;"></path>
    <path d="M37.2,7.7c2.2,0,3.9-1.1,4.1-3l0,0c0.2-1.8-1.1-2.9-3.4-2.9h-4.5l-0.6,5.9H37.2z M31.9,0.3h6.3c1.8,0,3.2,0.5,4,1.5   c0.6,0.7,0.9,1.7,0.8,2.9l0,0c-0.3,2.4-2.1,3.8-4.4,4.2l3.9,6h-2l-3.6-5.7h-4.2l-0.6,5.7h-1.6L31.9,0.3z" style="transition-property: none;"></path>
  </g>
  <polygon class="st0-ide7f16f1e1" points="46.3,0.3 47.8,0.3 55.8,12 57,0.3 58.6,0.3 57.1,14.9 55.8,14.9 47.6,2.9 46.4,14.9 44.8,14.9 " style="transition-property: none;"></polygon>
  <polygon class="st0-ide7f16f1e1" points="67.7,0.3 78.2,0.3 78.1,1.8 69.2,1.8 68.7,7 76.6,7 76.4,8.5 68.5,8.5 67.9,14.9 66.2,14.9 " style="transition-property: none;"></polygon>
  <polygon class="st0-ide7f16f1e1" points="80.8,0.3 91.3,0.3 91.1,1.8 82.3,1.8 81.7,6.8 89.7,6.8 89.5,8.3 81.6,8.3 81,13.4 90,13.4 89.9,14.9 79.2,14.9 " style="transition-property: none;"></polygon>
  <g class="st0-ide7f16f1e1" >
    <path d="M99.4,7.7c2.2,0,3.9-1.1,4.1-3l0,0c0.2-1.8-1.1-2.9-3.4-2.9h-4.5L95,7.7H99.4z M94.1,0.3h6.3c1.8,0,3.2,0.5,4,1.5   c0.6,0.7,0.9,1.7,0.8,2.9l0,0c-0.3,2.4-2.1,3.8-4.4,4.2l3.9,6h-2l-3.6-5.7h-4.2l-0.6,5.7h-1.6L94.1,0.3z" style="transition-property: none;"></path>
    <path d="M113.9,7.7c2.2,0,3.9-1.1,4.1-3l0,0c0.2-1.8-1.1-2.9-3.4-2.9h-4.5l-0.6,5.9H113.9z M108.5,0.3h6.3c1.8,0,3.2,0.5,4,1.5   c0.6,0.7,0.9,1.7,0.8,2.9l0,0c-0.3,2.4-2.1,3.8-4.4,4.2l3.9,6h-2l-3.6-5.7h-4.2l-0.6,5.7h-1.6L108.5,0.3z" style="transition-property: none;"></path>
  </g>
  <polygon class="st0-ide7f16f1e1" points="126.1,9.1 120.9,0.3 122.9,0.3 127.1,7.6 132.8,0.3 134.7,0.3 127.7,9.1 127.1,14.9 125.4,14.9 " style="transition-property: none;"></polygon>
  <g>
    <path class="st0-ide7f16f1ee" d="M139.3,12.9l2.1-2.3c1.2,1.1,2.5,1.8,4.2,1.8c1.3,0,2.2-0.5,2.2-1.4l0,0c0.1-0.8-0.4-1.2-2.7-1.9   c-2.9-0.7-4.7-1.6-4.4-4.5l0,0c0.3-2.6,2.6-4.4,5.6-4.4c2.1,0,3.9,0.7,5.2,1.9l-1.9,2.4c-1.2-0.9-2.4-1.4-3.6-1.4   c-1.2,0-1.9,0.6-2,1.3l0,0c-0.1,1,0.5,1.3,2.9,1.9c2.9,0.8,4.4,1.8,4.2,4.4l0,0c-0.3,2.9-2.7,4.5-5.9,4.5   C143,15.2,140.9,14.4,139.3,12.9" style="transition-property: none;"></path>
    <polygon class="st0-ide7f16f1ee" points="154.9,0.4 165.9,0.4 165.6,3.3 157.8,3.3 157.5,6.2 164.4,6.2 164.1,9.1 157.2,9.1 156.9,12.1    164.8,12.1 164.5,15 153.4,15  " style="transition-property: none;"></polygon>
    <polygon class="st0-ide7f16f1ee" points="168.9,0.4 172.1,0.4 170.9,12.1 178.1,12.1 177.8,15 167.4,15  " style="transition-property: none;"></polygon>
    <polygon class="st0-ide7f16f1ee" points="181.8,0.4 185,0.4 183.8,12.1 191,12.1 190.7,15 180.3,15  " style="transition-property: none;"></polygon>
  </g>
</svg>
