<?xml version="1.0" encoding="UTF-8" standalone="no"?>
<svg xmlns:dc="http://purl.org/dc/elements/1.1/" xmlns:cc="http://creativecommons.org/ns#" xmlns:rdf="http://www.w3.org/1999/02/22-rdf-syntax-ns#" xmlns:svg="http://www.w3.org/2000/svg" xmlns="http://www.w3.org/2000/svg" xmlns:sodipodi="http://sodipodi.sourceforge.net/DTD/sodipodi-0.dtd" xmlns:inkscape="http://www.inkscape.org/namespaces/inkscape" width="54.054287" height="50" id="svg3068" version="1.1" inkscape:version="0.48.5 r10040" sodipodi:docname="korn-ferry-logo.svg">
  <defs id="defs3070" />
  <sodipodi:namedview id="base" pagecolor="#ffffff" bordercolor="#666666" borderopacity="1.0" inkscape:pageopacity="0.0" inkscape:pageshadow="2" inkscape:zoom="2.8" inkscape:cx="190.81889" inkscape:cy="-8.5312973" inkscape:document-units="px" inkscape:current-layer="layer1" showgrid="false" inkscape:window-width="1920" inkscape:window-height="1004" inkscape:window-x="1916" inkscape:window-y="-4" inkscape:window-maximized="1" fit-margin-top="0" fit-margin-left="0" fit-margin-right="0" fit-margin-bottom="0" />
  <metadata id="metadata3073">
    <rdf:RDF>
      <cc:Work rdf:about="">
        <dc:format>image/svg+xml</dc:format>
        <dc:type rdf:resource="http://purl.org/dc/dcmitype/StillImage" />
        <dc:title></dc:title>
      </cc:Work>
    </rdf:RDF>
  </metadata>
  <g inkscape:label="Layer 1" inkscape:groupmode="layer" id="layer1" transform="translate(-0.98985899,-7.256021)">
    <path id="path34" style="letter-spacing:0px;word-spacing:0px;fill:#32b561" d="m 35.94188,11.875552 19.102267,0 0,13.222598 -0.510286,0 C 52.656027,16.098524 50.952859,12.389733 35.941331,12.847041 z m 9.328237,11.331089 0.747629,0.0081 0,17.65327 -0.900372,0 c 0,0 0.874676,-8.239428 -9.358718,-8.239428 l -0.03623,-1.081332 C 46.035477,31.470781 45.26938,23.20546 45.26938,23.20546 z m -22.672216,-11.217362 -4.869208,0 -16.73883401,19.35802 14.91322501,21.491963 11.489084,0 0,-0.76175 -3.423776,0 L 6.1646709,26.39371 17.957922,12.75151 l 4.640876,0 m 7.709386,-5.495489 0,50 0.784326,0 0,-50 z" inkscape:connector-curvature="0" sodipodi:nodetypes="ccccccccccccccccccccccccccccc" />
  </g>
</svg>
